<svg width="30" height="30" viewBox="0 0 30 30" fill="none" xmlns="http://www.w3.org/2000/svg">
<g clip-path="url(#clip0_2243_12328)">
<path d="M15 29C22.732 29 29 22.732 29 15C29 7.26801 22.732 1 15 1C7.26801 1 1 7.26801 1 15C1 22.732 7.26801 29 15 29Z" stroke="#A2A6B0" stroke-width="2"/>
<path d="M17.4574 23.6667C18.01 23.6667 18.5399 23.4472 18.9306 23.0565C19.3213 22.6658 19.5408 22.1359 19.5408 21.5833C19.5408 21.0308 19.3213 20.5009 18.9306 20.1102C18.5399 19.7195 18.01 19.5 17.4574 19.5C16.9049 19.5 16.375 19.7195 15.9843 20.1102C15.5936 20.5009 15.3741 21.0308 15.3741 21.5833C15.3741 22.1359 15.5936 22.6658 15.9843 23.0565C16.375 23.4472 16.9049 23.6667 17.4574 23.6667ZM10.1658 23.6667C10.7183 23.6667 11.2482 23.4472 11.6389 23.0565C12.0296 22.6658 12.2491 22.1359 12.2491 21.5833C12.2491 21.0308 12.0296 20.5009 11.6389 20.1102C11.2482 19.7195 10.7183 19.5 10.1658 19.5C9.61323 19.5 9.08333 19.7195 8.69263 20.1102C8.30193 20.5009 8.08243 21.0308 8.08243 21.5833C8.08243 22.1359 8.30193 22.6658 8.69263 23.0565C9.08333 23.4472 9.61323 23.6667 10.1658 23.6667ZM23.747 9.00312C24.0071 8.99474 24.2536 8.88554 24.4346 8.69863C24.6156 8.51171 24.7168 8.26174 24.7168 8.00156C24.7168 7.74139 24.6156 7.49141 24.4346 7.3045C24.2536 7.11758 24.0071 7.00839 23.747 7H22.5481C21.6085 7 20.796 7.65208 20.5918 8.56875L19.2866 14.4458C19.0824 15.3625 18.2699 16.0146 17.3304 16.0146H9.50535L8.00327 10.0042H17.7376C17.9952 9.99241 18.2384 9.88181 18.4165 9.69537C18.5946 9.50892 18.694 9.26099 18.694 9.00312C18.694 8.74526 18.5946 8.49733 18.4165 8.31088C18.2384 8.12444 17.9952 8.01384 17.7376 8.00208H8.00327C7.69875 8.00199 7.39823 8.07133 7.12453 8.20483C6.85084 8.33832 6.61118 8.53246 6.42379 8.77248C6.23639 9.01251 6.10618 9.29209 6.04306 9.59C5.97994 9.8879 5.98557 10.1963 6.05952 10.4917L7.5616 16.5C7.66989 16.9335 7.92003 17.3184 8.27224 17.5934C8.62444 17.8684 9.05849 18.0178 9.50535 18.0177H17.3304C18.242 18.0178 19.1265 17.707 19.8376 17.1366C20.5488 16.5661 21.0441 15.7702 21.2418 14.8802L22.5481 9.00312H23.747Z" fill="#A2A6B0"/>
</g>
<defs>
<clipPath id="clip0_2243_12328">
<rect width="30" height="30" fill="white"/>
</clipPath>
</defs>
</svg>
