<svg width="30" height="30" viewBox="0 0 30 30" fill="none" xmlns="http://www.w3.org/2000/svg">
<circle cx="15" cy="15" r="14" stroke="#A2A6B0" stroke-width="2"/>
<path d="M22.8266 8.58616C22.5716 7.97466 22.0618 7.45052 21.4669 7.18845C20.1922 6.66431 18.7475 7.27581 18.1527 8.4988L14.2436 17.4965C13.9037 18.2827 13.8187 19.2437 13.9037 20.0299L14.2436 21.9517C14.3286 22.2138 14.4986 22.4759 14.7535 22.5632C14.8385 22.6506 15.0084 22.6506 15.0934 22.6506C15.2634 22.6506 15.4333 22.5632 15.5183 22.4759L17.1329 21.4276C17.8978 20.9034 18.4076 20.2919 18.7475 19.4184L22.6566 10.4206C23.0815 9.89651 23.0815 9.19765 22.8266 8.58616ZM17.3879 18.8942C17.1329 19.4184 16.793 19.7678 16.3681 20.1172L15.7733 20.4667L15.6883 19.8552C15.6033 19.331 15.6883 18.8069 15.8582 18.2827L18.8325 11.2942L20.3622 11.9057L17.3879 18.8942ZM21.2969 9.80915L21.127 10.2459L19.5973 9.63444L19.7673 9.19765C19.9373 8.84823 20.1922 8.67351 20.5321 8.67351C20.6171 8.67351 20.7871 8.67351 20.872 8.76087C21.042 8.84823 21.212 9.02294 21.2969 9.19765C21.3819 9.45972 21.3819 9.63444 21.2969 9.80915Z" fill="#A2A6B0"/>
<path d="M6.8498 19.5057H10.249C10.7589 19.5057 11.0988 19.1563 11.0988 18.6322C11.0988 18.108 10.7589 17.7586 10.249 17.7586H6.8498C6.33992 17.7586 6 18.108 6 18.6322C6 19.1563 6.33992 19.5057 6.8498 19.5057Z" fill="#A2A6B0"/>
<path d="M11.9486 21.2529H6.8498C6.33992 21.2529 6 21.6023 6 22.1264C6 22.6506 6.33992 23 6.8498 23H11.9486C12.4585 23 12.7984 22.6506 12.7984 22.1264C12.7984 21.6023 12.4585 21.2529 11.9486 21.2529Z" fill="#A2A6B0"/>
</svg>
